<?xml version="1.0" encoding="utf-8"?>
<!-- Generator: Adobe Illustrator 17.0.0, SVG Export Plug-In . SVG Version: 6.00 Build 0)  -->
<!DOCTYPE svg PUBLIC "-//W3C//DTD SVG 1.1//EN" "http://www.w3.org/Graphics/SVG/1.1/DTD/svg11.dtd">
<svg version="1.1" id="Capa_1" xmlns="http://www.w3.org/2000/svg" xmlns:xlink="http://www.w3.org/1999/xlink" x="0px" y="0px"
	 width="502.02px" height="101.04px" viewBox="0 0 502.02 101.04" enable-background="new 0 0 502.02 101.04" xml:space="preserve">
<g>
	<path fill="#F8F8F8" d="M5.001,78.698l17.723-10.2c2.805,4.973,5.738,7.649,12.623,7.649c8.925,0,11.603-5.1,11.603-10.582V5.002
		h20.4v60.564c0,19.635-13.771,30.473-32.131,30.473C21.067,96.038,10.867,90.046,5.001,78.698z"/>
	<path fill="#F8F8F8" d="M150.861,5.002v89.251h-20.4V58.808h-28.05v35.445h-20.4V5.002h20.4v34.171h28.05V5.002H150.861z"/>
	<path fill="#F8F8F8" d="M218.434,80.228h-33.15l-4.463,14.025h-22.313l30.346-89.251h26.011l30.345,89.251h-22.313L218.434,80.228z
		 M212.314,61.103l-10.455-32.769l-10.455,32.769H212.314z"/>
	<path fill="#F8F8F8" d="M322.984,5.002v89.251h-15.3l-34.426-48.451v48.451h-20.4V5.002h15.3l34.426,48.451V5.002H322.984z"/>
	<path fill="#F8F8F8" d="M459.409,94.253h-20.4V42.36l-23.077,37.868h-2.295L390.558,42.36v51.893h-20.4V5.002h20.4l24.226,39.653
		l24.225-39.653h20.4V94.253z"/>
	<path fill="#F94258" d="M472.793,83.926c0-6.631,5.482-12.113,12.113-12.113c6.63,0,12.112,5.482,12.112,12.113
		c0,6.63-5.482,12.112-12.112,12.112C478.276,96.038,472.793,90.556,472.793,83.926z"/>
</g>
</svg>
