<?xml version="1.0" encoding="utf-8"?>
<!-- Generator: Adobe Illustrator 17.0.0, SVG Export Plug-In . SVG Version: 6.00 Build 0)  -->
<!DOCTYPE svg PUBLIC "-//W3C//DTD SVG 1.1//EN" "http://www.w3.org/Graphics/SVG/1.1/DTD/svg11.dtd">
<svg version="1.1" id="Capa_1" xmlns="http://www.w3.org/2000/svg" xmlns:xlink="http://www.w3.org/1999/xlink" x="0px" y="0px"
	 width="336.53px" height="101.04px" viewBox="0 0 336.53 101.04" enable-background="new 0 0 336.53 101.04" xml:space="preserve">
<g>
	<path fill="#F94258" d="M5,75.766l17.595-10.2c3.188,7.395,8.67,12.367,18.743,12.367c9.69,0,12.113-3.825,12.113-7.267
		c0-5.482-5.1-7.65-18.488-11.348C21.703,55.62,8.698,49.245,8.698,32.16c0-17.213,14.535-27.158,29.963-27.158
		c14.663,0,26.138,7.013,32.641,20.145L54.089,35.22c-3.06-6.375-7.268-10.328-15.428-10.328c-6.375,0-9.563,3.188-9.563,6.758
		c0,4.08,2.167,6.885,16.065,11.093c13.516,4.08,28.688,8.797,28.688,27.668c0,17.212-13.771,27.413-33.151,27.413
		C21.958,97.823,9.973,88.898,5,75.766z"/>
	<path fill="#F94258" d="M79.588,51.413c0-26.266,20.783-46.411,46.411-46.411s46.411,20.145,46.411,46.411
		c0,26.265-20.783,46.411-46.411,46.411S79.588,77.678,79.588,51.413z M152.01,51.413c0-15.938-11.475-26.521-26.011-26.521
		c-14.535,0-26.01,10.583-26.01,26.521c0,15.938,11.475,26.52,26.01,26.52C140.535,77.933,152.01,67.351,152.01,51.413z"/>
	<path fill="#F94258" d="M238.709,26.422h-22.95v69.616h-20.4V26.422h-22.951V6.787h66.301V26.422z"/>
	<path fill="#F94258" d="M238.708,51.413c0-26.266,20.783-46.411,46.411-46.411s46.41,20.145,46.41,46.411
		c0,26.265-20.782,46.411-46.41,46.411S238.708,77.678,238.708,51.413z M311.129,51.413c0-15.938-11.475-26.521-26.01-26.521
		s-26.011,10.583-26.011,26.521c0,15.938,11.476,26.52,26.011,26.52S311.129,67.351,311.129,51.413z"/>
</g>
</svg>
